<svg width="1840" height="1380" viewBox="0 0 1840 1380" fill="none" xmlns="http://www.w3.org/2000/svg">
<path d="M529.514 833.013C463.84 857.679 407.147 777.977 453.608 725.407C454.475 724.424 462.164 712.881 462.896 711.821C473.11 696.964 478.698 681.335 481.627 670.602C482.359 667.904 486.291 668.173 486.657 670.948C488.16 682.472 489.567 698.37 487.389 706.926C485.192 715.54 487.023 722.902 493.093 720.396C499.182 717.891 524.928 709.316 527.761 672.683C528.955 657.382 546.068 634.45 557.842 620.344C560.193 617.531 564.702 619.997 563.623 623.505C559.942 635.452 555.722 651.408 556.146 660.986C556.897 677.751 555.259 700.259 570.618 705.308C585.977 710.356 585.688 728.047 594.494 728.683C603.301 729.319 632.765 702.957 634.461 679.466C636.176 655.995 636.639 622.58 654.29 596.333C662.596 583.981 670.786 570.318 677.107 559.295C679.188 555.653 684.718 557.542 684.217 561.704C682.926 572.399 683.119 583.403 688.399 587.006C699.634 594.714 717.151 556.867 710.811 535.747C707.169 523.568 709.308 503.584 711.793 488.823C712.506 484.545 718.5 484.044 719.868 488.168C724.3 501.407 733.087 518.924 750.18 530.255C777.178 548.138 778.277 567.986 781.032 597.701C783.788 627.397 778.816 651.813 778.816 651.813C778.816 651.813 792.267 649.404 800.515 633.024C805.718 622.714 809.495 602.808 811.595 589.473C812.173 585.811 817.203 585.31 818.513 588.76C821.924 597.759 826.549 610.613 830.557 624.16C837.09 646.167 826.549 664.955 815.565 680.873C804.581 696.79 769.239 734.811 735.323 741.189C701.407 747.568 669.36 758.282 646.158 774.739C613.071 798.249 569.867 817.866 529.514 833.013Z" fill="#E72A8B"/>
<path d="M645.85 756.008C645.85 756.008 669.013 697.734 666.084 682.26C663.155 666.786 665.66 621.597 669.013 613.657C672.366 605.718 676.124 595.678 676.124 595.678C676.124 595.678 672.771 619.515 684.911 645.049C697.052 670.582 697.052 680.179 697.052 680.179C697.052 680.179 703.334 671.815 705.415 655.917C707.516 640.019 714.202 621.616 714.202 621.616C714.202 621.616 721.313 657.17 725.919 670.563C730.524 683.956 725.495 701.106 725.495 701.106C725.495 701.106 733.762 696.694 737.635 687.713C739.004 684.553 740.564 674.744 740.564 674.744C740.564 674.744 745.575 694.4 735.959 706.117C726.343 717.833 706.668 723.267 689.517 729.126C672.347 734.965 645.85 756.008 645.85 756.008Z" fill="white"/>
<path d="M533.425 817.307C539.206 814.879 548.649 810.582 553.697 802.084C558.746 793.585 558.746 774.199 558.746 774.199C558.746 774.199 551.847 780.578 550.768 785.627C549.708 790.675 543.6 796.514 543.6 796.514C543.6 796.514 541.75 786.686 544.66 777.398C547.569 768.11 539.881 752.693 539.881 752.693C539.881 752.693 541.21 767.3 537.761 773.679C534.311 780.057 525.274 786.686 523.674 795.455C522.075 804.223 512.94 822.24 512.94 822.24C512.94 822.24 523.79 821.354 533.425 817.307Z" fill="white"/>
<path d="M1278.96 890.709L1316.5 931.871L1174.23 977.214L1150.25 934.491L1278.96 890.709Z" fill="white" stroke="black" stroke-width="3.85409" stroke-miterlimit="10" stroke-linecap="round" stroke-linejoin="round"/>
<path d="M1139.41 844.825L1130.95 952.604L1294.38 950.504L1288.04 837.078L1139.41 844.825Z" fill="white" stroke="black" stroke-width="3.85409" stroke-miterlimit="10" stroke-linecap="round" stroke-linejoin="round"/>
<path d="M704.047 747.202L637.14 725.869L547.725 814.706L632.515 831.433L704.047 747.202Z" fill="white" stroke="black" stroke-width="3.85409" stroke-miterlimit="10" stroke-linecap="round" stroke-linejoin="round"/>
<path d="M749.619 721.244L595.012 785.28C595.012 785.28 730.002 865.464 730.58 863.73C731.158 861.996 796.928 814.128 796.928 814.128L749.619 721.244Z" fill="white" stroke="black" stroke-width="3.85409" stroke-miterlimit="10" stroke-linecap="round" stroke-linejoin="round"/>
<path d="M795.659 682.934C795.659 682.934 745.748 727.083 717.421 758.552C689.093 790.02 677.145 802.604 677.145 802.604C677.145 802.604 651.477 805.032 633.941 816.055C616.405 827.077 593.049 842.841 582.739 852.476C572.41 862.111 579.926 869.049 579.926 869.049C579.926 869.049 576.149 877.316 577.864 881.786C579.579 886.257 583.375 887.298 583.375 887.298C583.375 887.298 578.808 896.027 583.799 899.611C588.482 903.003 596.807 899.342 596.807 899.342C596.807 899.342 594.34 905.72 597.077 908.476C599.813 911.232 606.269 911.02 615.557 903.793C624.845 896.567 646.814 878.009 646.814 878.009C646.814 878.009 662.519 863.903 670.786 863.903C679.053 863.903 679.053 863.903 679.053 863.903C679.053 863.903 678.976 871.303 673.908 877.219C667.221 885.024 661.498 896.239 662.191 901.404C662.885 906.568 667.144 910.037 667.144 910.037C667.144 910.037 684.911 895.892 692.138 887.644C699.364 879.377 708.633 864.597 710.021 858.739C711.389 852.881 711.736 828.118 713.798 822.954C715.86 817.789 864.165 724.192 864.165 724.192C864.165 724.192 868.636 698.736 857.286 687.039C845.935 675.342 795.659 682.934 795.659 682.934Z" fill="white" stroke="black" stroke-width="3.85409" stroke-miterlimit="10" stroke-linecap="round" stroke-linejoin="round"/>
<path d="M579.904 869.029C579.904 869.029 599.907 853.747 617.867 842.301" stroke="black" stroke-width="3.85409" stroke-miterlimit="10" stroke-linecap="round" stroke-linejoin="round"/>
<path d="M583.337 887.258C583.337 887.258 613.187 859.47 626.715 851.916" stroke="black" stroke-width="3.85409" stroke-miterlimit="10" stroke-linecap="round" stroke-linejoin="round"/>
<path d="M596.767 899.303C596.767 899.303 630.645 867.546 640.28 861.822" stroke="black" stroke-width="3.85409" stroke-miterlimit="10" stroke-linecap="round" stroke-linejoin="round"/>
<path d="M1040.33 580.82V520.715C1040.33 489.574 1067.99 464.33 1102.12 464.33H1240.52C1274.64 464.33 1302.3 489.574 1302.3 520.715V743.366L1040.33 580.82Z" fill="#808080" stroke="#231F20" stroke-width="3.85409" stroke-miterlimit="10"/>
<path d="M1237.26 789.383C1237.26 789.383 1135.44 888.607 1130.25 891.209C1125.07 893.81 1083.83 888.279 1069.63 896.508C1055.41 904.736 1014.65 927.919 1014.26 929.807C1013.9 931.677 1023.61 940.271 1025.86 940.657C1028.1 941.023 996.689 971.701 996.689 972.819C996.689 973.937 1004.92 979.544 1011.64 977.309C1018.37 975.074 1027.35 967.963 1027.35 967.963C1027.35 967.963 1009.33 998.603 1009.33 1001.07C1009.33 1003.56 1023.57 1006.02 1029.97 1000.24C1036.37 994.46 1049.16 972.376 1049.16 972.376L1061.55 968.445L1044.46 1006.14C1044.46 1006.14 1053.04 1009.12 1060.67 1003.34C1068.3 997.562 1080.32 977.136 1080.32 977.136C1080.32 977.136 1074.97 1000.66 1077.22 1001.71C1079.49 1002.75 1087.05 999.027 1092.96 990.548C1099.84 980.681 1100.75 971.778 1100.75 971.778C1100.75 971.778 1130.68 964.552 1145.75 948.249C1160.82 931.946 1171.55 919.343 1171.55 919.343C1171.55 919.343 1238.09 886.68 1267.75 868.97C1297.4 851.261 1311.26 839.699 1311.26 839.699C1311.26 839.699 1339.38 841.626 1349.76 814.281C1360.17 786.936 1339.74 754.215 1339.74 754.215C1339.74 754.215 1335.89 702.609 1319.33 665.648C1302.78 628.687 1251.56 573.998 1206.12 559.352C1160.68 544.726 1074.93 543.859 1024.09 569.257C973.256 594.675 953.484 620.189 953.484 620.189C953.484 620.189 920.359 625.585 893.804 636.742C867.23 647.919 852.604 657.92 852.604 657.92C852.604 657.92 839.904 653.295 829.113 654.066C821.366 654.625 806.47 666.11 798.685 672.527C795.64 675.052 794.426 679.176 795.602 682.953C795.602 682.953 826.8 680.255 842.583 694.515C858.365 708.756 857.942 725.483 857.942 725.483L976.166 743.057C976.166 743.057 1043.79 755.622 1057.24 750.457C1070.69 745.293 1090.83 727.082 1090.83 727.082C1090.83 727.082 1123.74 738.721 1155.54 742.537C1181.22 745.601 1193.04 748.819 1193.04 748.819C1193.04 748.819 1195.79 751.228 1206.83 760.189C1217.88 769.149 1223.39 770.537 1223.39 770.537L1237.26 789.383Z" fill="white" stroke="black" stroke-width="3.85409" stroke-miterlimit="10" stroke-linecap="round" stroke-linejoin="round"/>
<path d="M1172.3 794.336L1053.48 773.004L976.59 817.981L1012.34 897.934L1172.3 794.336Z" fill="white" stroke="black" stroke-width="3.85409" stroke-miterlimit="10" stroke-linecap="round" stroke-linejoin="round"/>
<path d="M1021.56 866.774L1089.96 825.246L1028.54 811.854L988.072 834.111L994.99 859.856L1021.56 866.774Z" fill="#808080"/>
<path d="M1053.94 781.117L1090.44 788.228L1060.09 808.79L1025.5 801.486L1053.94 781.117Z" fill="#808080"/>
<path d="M1022.26 908.861L1172.49 812.778V795.223L1015.05 894.176L1022.26 908.861Z" fill="white" stroke="black" stroke-width="3.85409" stroke-miterlimit="10" stroke-linecap="round" stroke-linejoin="round"/>
<path d="M1071.44 735.773C1071.44 735.773 1075.12 751.787 1067.24 769.574C1061.96 781.522 1053.31 791.465 1046.35 794.259C1046.35 794.259 1031.12 799.058 1034.86 781.175C1038.62 763.272 1071.44 735.773 1071.44 735.773Z" fill="white" stroke="black" stroke-width="3.85409" stroke-miterlimit="10" stroke-linecap="round" stroke-linejoin="round"/>
<path d="M1001 831.49C1001 831.49 1022.01 826.46 1036.29 814.358C1050.9 801.986 1055.48 793.604 1055.48 793.604L1044.07 789.461C1044.07 789.461 1049.8 772.695 1060.68 762.309C1071.57 751.922 1076.26 741.574 1077.64 722.361C1079.65 694.496 1063.06 665.879 1051.34 659.732C1034.9 651.118 1008.48 651.889 1008.48 651.889C1008.48 651.889 965.585 662.179 944.735 674.512C923.884 686.845 911.551 705.576 911.551 705.576V695.787C911.551 695.787 903.477 696.211 899.642 707.696C895.807 719.181 896.173 731.206 896.173 731.206L976.203 743.019L1001 831.49Z" fill="black"/>
<path d="M1223.42 770.499C1223.42 770.499 1222.92 750.708 1238.8 742.576" stroke="black" stroke-width="3.85409" stroke-miterlimit="10" stroke-linecap="round" stroke-linejoin="round"/>
<path d="M1193.07 748.781C1193.07 748.781 1184.46 740.514 1179.97 719.471" stroke="black" stroke-width="3.85409" stroke-miterlimit="10" stroke-linecap="round" stroke-linejoin="round"/>
<path d="M1237.26 789.384C1237.26 789.384 1262.43 765.662 1300.39 784.432C1332.88 800.503 1311.28 839.661 1311.28 839.661" stroke="black" stroke-width="3.85409" stroke-miterlimit="10" stroke-linecap="round" stroke-linejoin="round"/>
<path d="M1025.71 941.524C1025.71 941.524 1042.2 928.227 1055.25 921.637" stroke="black" stroke-width="3.85409" stroke-miterlimit="10" stroke-linecap="round" stroke-linejoin="round"/>
<path d="M1027.37 967.945C1027.37 967.945 1039.76 952.722 1045.35 948.81C1050.94 944.898 1066.39 932.873 1066.39 932.873" stroke="black" stroke-width="3.85409" stroke-miterlimit="10" stroke-linecap="round" stroke-linejoin="round"/>
<path d="M1061.57 968.426C1061.57 968.426 1071.98 954.937 1082.4 945.629" stroke="black" stroke-width="3.85409" stroke-miterlimit="10" stroke-linecap="round" stroke-linejoin="round"/>
<path d="M1080.36 977.099C1080.36 977.099 1087.44 964.438 1093.76 957.559" stroke="black" stroke-width="3.85409" stroke-miterlimit="10" stroke-linecap="round" stroke-linejoin="round"/>
<path d="M1007.81 671.488L1038.54 650.349C1038.54 650.349 1065.06 636.127 1085.45 657.96C1113.7 688.196 1101.23 717.718 1101.23 717.718L1090.86 727.045" stroke="black" stroke-width="3.85409" stroke-miterlimit="10" stroke-linecap="round" stroke-linejoin="round"/>
<path d="M852.645 657.902C852.645 657.902 879.45 670.871 886.194 697.85C892.534 723.171 888.95 730.051 888.95 730.051" stroke="black" stroke-width="3.85409" stroke-miterlimit="10" stroke-linecap="round" stroke-linejoin="round"/>
<path d="M953.733 642.562C953.733 642.562 951.324 654.317 956.932 679.176" stroke="black" stroke-width="3.85409" stroke-miterlimit="10" stroke-linecap="round" stroke-linejoin="round"/>
<path d="M1339.8 754.177C1339.8 754.177 1321.49 726.947 1262.18 735.677" stroke="black" stroke-width="3.85409" stroke-miterlimit="10" stroke-linecap="round" stroke-linejoin="round"/>
<path d="M1213.73 658.808C1213.73 658.808 1263.51 632.369 1300.45 656.091" stroke="black" stroke-width="3.85409" stroke-miterlimit="10" stroke-linecap="round" stroke-linejoin="round"/>
<path d="M976.204 743.02L1022.26 908.862L775.001 868.837L731.142 706.561L976.204 743.02Z" fill="white" stroke="black" stroke-width="3.85409" stroke-miterlimit="10" stroke-linecap="round" stroke-linejoin="round"/>
<path d="M1240.86 999.935C1224.5 978.255 1239.94 944.07 1257.98 925.011C1276.01 905.953 1315.83 881.132 1326.62 869.666C1335.23 860.513 1341.92 847.949 1346.08 838.776C1347.31 836.078 1351.34 836.945 1351.36 839.913C1351.38 852.728 1350.47 871.902 1345.41 883.56C1337.27 902.234 1339.34 907.302 1339.34 907.302C1339.34 907.302 1342.82 914.779 1349.9 901.135C1353.11 894.93 1356.52 891.847 1359.55 890.401C1362.94 888.783 1366.76 892.02 1365.79 895.662C1364.77 899.555 1364.37 905.76 1366.85 915.048C1371.86 933.76 1371.5 952.028 1371.5 952.028L1381.48 935.321C1382.67 933.317 1385.64 933.509 1386.53 935.668C1389.84 943.742 1394.93 960.507 1388.55 976.675C1376.35 1007.66 1349.41 1016.8 1312.51 1020.28C1293.41 1022.06 1256.88 1021.15 1240.86 999.935Z" fill="#E72A8B"/>
<path d="M1273.89 1010.34C1279.65 1011.54 1292.14 1008.64 1293.88 997.95C1296.11 984.287 1288.81 961.586 1291.51 949.677C1296.61 927.112 1309.08 909.807 1309.08 909.807C1309.08 909.807 1291.54 923.045 1285.05 938.635C1280.02 950.699 1274.09 961.047 1274.09 961.047C1274.09 961.047 1266.05 934.955 1266.47 940.061C1266.69 942.605 1267.71 950.14 1260.15 961.451C1252.21 973.284 1250.88 984.634 1255.86 996.62C1258.17 1002.17 1266.05 1008.7 1273.89 1010.34Z" fill="white"/>
</svg>
